<mxfile host="app.diagrams.net" modified="2024-03-18T17:25:37.556Z" agent="Mozilla/5.0 (Windows NT 10.0; Win64; x64) AppleWebKit/537.36 (KHTML, like Gecko) Chrome/122.0.0.0 Safari/537.36 Edg/122.0.0.0" etag="xgF5g78CViP5mGiY4dsm" version="23.1.6" type="github">
  <diagram name="Page-1" id="e7e014a7-5840-1c2e-5031-d8a46d1fe8dd">
    <mxGraphModel dx="1616" dy="888" grid="1" gridSize="10" guides="1" tooltips="1" connect="1" arrows="1" fold="1" page="1" pageScale="1" pageWidth="1169" pageHeight="826" background="none" math="0" shadow="0">
      <root>
        <mxCell id="0" />
        <mxCell id="1" parent="0" />
        <mxCell id="fF-WyDOVF_BssLDyHzEs-42" value="" style="swimlane;childLayout=stackLayout;resizeParent=1;resizeParentMax=0;startSize=20;html=1;" vertex="1" parent="1">
          <mxGeometry x="200" y="40" width="720" height="720" as="geometry">
            <mxRectangle x="200" y="40" width="50" height="40" as="alternateBounds" />
          </mxGeometry>
        </mxCell>
        <mxCell id="fF-WyDOVF_BssLDyHzEs-43" value="Người dùng" style="swimlane;startSize=20;html=1;" vertex="1" parent="fF-WyDOVF_BssLDyHzEs-42">
          <mxGeometry y="20" width="360" height="700" as="geometry">
            <mxRectangle y="20" width="40" height="460" as="alternateBounds" />
          </mxGeometry>
        </mxCell>
        <mxCell id="fF-WyDOVF_BssLDyHzEs-49" value="Hệ thống" style="swimlane;startSize=20;html=1;" vertex="1" parent="fF-WyDOVF_BssLDyHzEs-42">
          <mxGeometry x="360" y="20" width="360" height="700" as="geometry" />
        </mxCell>
        <mxCell id="fF-WyDOVF_BssLDyHzEs-76" value="" style="edgeStyle=orthogonalEdgeStyle;rounded=0;orthogonalLoop=1;jettySize=auto;html=1;" edge="1" parent="fF-WyDOVF_BssLDyHzEs-49" source="fF-WyDOVF_BssLDyHzEs-74" target="fF-WyDOVF_BssLDyHzEs-75">
          <mxGeometry relative="1" as="geometry" />
        </mxCell>
        <mxCell id="fF-WyDOVF_BssLDyHzEs-87" value="" style="edgeStyle=orthogonalEdgeStyle;rounded=0;orthogonalLoop=1;jettySize=auto;html=1;" edge="1" parent="fF-WyDOVF_BssLDyHzEs-49" source="fF-WyDOVF_BssLDyHzEs-83" target="fF-WyDOVF_BssLDyHzEs-86">
          <mxGeometry relative="1" as="geometry" />
        </mxCell>
        <mxCell id="fF-WyDOVF_BssLDyHzEs-91" value="" style="edgeStyle=orthogonalEdgeStyle;rounded=0;orthogonalLoop=1;jettySize=auto;html=1;" edge="1" parent="fF-WyDOVF_BssLDyHzEs-49" source="fF-WyDOVF_BssLDyHzEs-88" target="fF-WyDOVF_BssLDyHzEs-90">
          <mxGeometry relative="1" as="geometry" />
        </mxCell>
        <mxCell id="fF-WyDOVF_BssLDyHzEs-96" style="edgeStyle=orthogonalEdgeStyle;rounded=0;orthogonalLoop=1;jettySize=auto;html=1;exitX=0;exitY=0.5;exitDx=0;exitDy=0;entryX=0.5;entryY=1;entryDx=0;entryDy=0;" edge="1" parent="fF-WyDOVF_BssLDyHzEs-49" source="fF-WyDOVF_BssLDyHzEs-77" target="fF-WyDOVF_BssLDyHzEs-74">
          <mxGeometry relative="1" as="geometry" />
        </mxCell>
        <mxCell id="fF-WyDOVF_BssLDyHzEs-100" value="" style="edgeStyle=orthogonalEdgeStyle;rounded=0;orthogonalLoop=1;jettySize=auto;html=1;" edge="1" parent="fF-WyDOVF_BssLDyHzEs-49" source="fF-WyDOVF_BssLDyHzEs-71" target="fF-WyDOVF_BssLDyHzEs-99">
          <mxGeometry relative="1" as="geometry" />
        </mxCell>
        <mxCell id="fF-WyDOVF_BssLDyHzEs-102" style="edgeStyle=orthogonalEdgeStyle;rounded=0;orthogonalLoop=1;jettySize=auto;html=1;exitX=0.5;exitY=1;exitDx=0;exitDy=0;" edge="1" parent="fF-WyDOVF_BssLDyHzEs-49" source="fF-WyDOVF_BssLDyHzEs-99" target="fF-WyDOVF_BssLDyHzEs-74">
          <mxGeometry relative="1" as="geometry" />
        </mxCell>
        <mxCell id="fF-WyDOVF_BssLDyHzEs-69" value="" style="ellipse;html=1;shape=startState;fillColor=#000000;strokeColor=#ff0000;" vertex="1" parent="fF-WyDOVF_BssLDyHzEs-49">
          <mxGeometry x="-205" y="31" width="40" height="40" as="geometry" />
        </mxCell>
        <mxCell id="fF-WyDOVF_BssLDyHzEs-70" value="" style="edgeStyle=orthogonalEdgeStyle;html=1;verticalAlign=bottom;endArrow=open;endSize=8;strokeColor=#ff0000;rounded=0;entryX=0.5;entryY=0;entryDx=0;entryDy=0;" edge="1" source="fF-WyDOVF_BssLDyHzEs-69" parent="fF-WyDOVF_BssLDyHzEs-49" target="fF-WyDOVF_BssLDyHzEs-71">
          <mxGeometry relative="1" as="geometry">
            <mxPoint x="-185" y="121" as="targetPoint" />
          </mxGeometry>
        </mxCell>
        <mxCell id="fF-WyDOVF_BssLDyHzEs-71" value="Chọn quên mật khẩu" style="rounded=1;whiteSpace=wrap;html=1;arcSize=40;fontColor=#000000;fillColor=#ffffc0;strokeColor=#ff0000;" vertex="1" parent="fF-WyDOVF_BssLDyHzEs-49">
          <mxGeometry x="-245" y="111" width="120" height="40" as="geometry" />
        </mxCell>
        <mxCell id="fF-WyDOVF_BssLDyHzEs-74" value="Nhập email đã đăng ký" style="rounded=1;whiteSpace=wrap;html=1;arcSize=40;fontColor=#000000;fillColor=#ffffc0;strokeColor=#ff0000;" vertex="1" parent="fF-WyDOVF_BssLDyHzEs-49">
          <mxGeometry x="-257.5" y="221" width="145" height="40" as="geometry" />
        </mxCell>
        <mxCell id="fF-WyDOVF_BssLDyHzEs-86" value="Nhập mã xác nhận" style="whiteSpace=wrap;html=1;fillColor=#ffffc0;strokeColor=#ff0000;fontColor=#000000;rounded=1;arcSize=40;" vertex="1" parent="fF-WyDOVF_BssLDyHzEs-49">
          <mxGeometry x="-247.5" y="391" width="135" height="40" as="geometry" />
        </mxCell>
        <mxCell id="fF-WyDOVF_BssLDyHzEs-88" value="Đặt lại mật khẩu" style="whiteSpace=wrap;html=1;fillColor=#ffffc0;strokeColor=#ff0000;fontColor=#000000;rounded=1;arcSize=40;" vertex="1" parent="fF-WyDOVF_BssLDyHzEs-49">
          <mxGeometry x="-247.5" y="561" width="135" height="40" as="geometry" />
        </mxCell>
        <mxCell id="fF-WyDOVF_BssLDyHzEs-109" value="" style="edgeStyle=orthogonalEdgeStyle;rounded=0;orthogonalLoop=1;jettySize=auto;html=1;" edge="1" parent="fF-WyDOVF_BssLDyHzEs-49" source="fF-WyDOVF_BssLDyHzEs-106" target="fF-WyDOVF_BssLDyHzEs-88">
          <mxGeometry relative="1" as="geometry" />
        </mxCell>
        <mxCell id="fF-WyDOVF_BssLDyHzEs-110" style="edgeStyle=orthogonalEdgeStyle;rounded=0;orthogonalLoop=1;jettySize=auto;html=1;exitX=0;exitY=0.5;exitDx=0;exitDy=0;entryX=0;entryY=0.5;entryDx=0;entryDy=0;" edge="1" parent="fF-WyDOVF_BssLDyHzEs-49" source="fF-WyDOVF_BssLDyHzEs-106" target="fF-WyDOVF_BssLDyHzEs-86">
          <mxGeometry relative="1" as="geometry">
            <Array as="points">
              <mxPoint x="-300" y="491" />
              <mxPoint x="-300" y="411" />
            </Array>
          </mxGeometry>
        </mxCell>
        <mxCell id="fF-WyDOVF_BssLDyHzEs-106" value="" style="rhombus;whiteSpace=wrap;html=1;fillColor=#ffffc0;strokeColor=#ff0000;fontColor=#000000;rounded=1;arcSize=0;" vertex="1" parent="fF-WyDOVF_BssLDyHzEs-49">
          <mxGeometry x="-213.12" y="471" width="66.25" height="40" as="geometry" />
        </mxCell>
        <mxCell id="fF-WyDOVF_BssLDyHzEs-107" value="" style="edgeStyle=orthogonalEdgeStyle;rounded=0;orthogonalLoop=1;jettySize=auto;html=1;" edge="1" parent="fF-WyDOVF_BssLDyHzEs-49" source="fF-WyDOVF_BssLDyHzEs-86" target="fF-WyDOVF_BssLDyHzEs-106">
          <mxGeometry relative="1" as="geometry" />
        </mxCell>
        <mxCell id="fF-WyDOVF_BssLDyHzEs-84" value="Hợp lệ" style="text;html=1;align=center;verticalAlign=middle;resizable=0;points=[];autosize=1;strokeColor=none;fillColor=none;" vertex="1" parent="fF-WyDOVF_BssLDyHzEs-49">
          <mxGeometry x="-185" y="521" width="60" height="30" as="geometry" />
        </mxCell>
        <mxCell id="fF-WyDOVF_BssLDyHzEs-111" value="Không hợp lệ" style="text;html=1;align=center;verticalAlign=middle;resizable=0;points=[];autosize=1;strokeColor=none;fillColor=none;" vertex="1" parent="fF-WyDOVF_BssLDyHzEs-49">
          <mxGeometry x="-300" y="461" width="100" height="30" as="geometry" />
        </mxCell>
        <mxCell id="fF-WyDOVF_BssLDyHzEs-78" value="" style="edgeStyle=orthogonalEdgeStyle;rounded=0;orthogonalLoop=1;jettySize=auto;html=1;" edge="1" parent="fF-WyDOVF_BssLDyHzEs-49" source="fF-WyDOVF_BssLDyHzEs-75" target="fF-WyDOVF_BssLDyHzEs-77">
          <mxGeometry relative="1" as="geometry" />
        </mxCell>
        <mxCell id="fF-WyDOVF_BssLDyHzEs-75" value="Kiểm tra email tồn tại" style="whiteSpace=wrap;html=1;fillColor=#ffffc0;strokeColor=#ff0000;fontColor=#000000;rounded=1;arcSize=40;" vertex="1" parent="fF-WyDOVF_BssLDyHzEs-49">
          <mxGeometry x="130" y="221" width="135" height="40" as="geometry" />
        </mxCell>
        <mxCell id="fF-WyDOVF_BssLDyHzEs-116" value="" style="edgeStyle=orthogonalEdgeStyle;rounded=0;orthogonalLoop=1;jettySize=auto;html=1;" edge="1" parent="fF-WyDOVF_BssLDyHzEs-49" source="fF-WyDOVF_BssLDyHzEs-77" target="fF-WyDOVF_BssLDyHzEs-83">
          <mxGeometry relative="1" as="geometry" />
        </mxCell>
        <mxCell id="fF-WyDOVF_BssLDyHzEs-77" value="" style="rhombus;whiteSpace=wrap;html=1;fillColor=#ffffc0;strokeColor=#ff0000;fontColor=#000000;rounded=1;arcSize=0;" vertex="1" parent="fF-WyDOVF_BssLDyHzEs-49">
          <mxGeometry x="164.38" y="301" width="66.25" height="40" as="geometry" />
        </mxCell>
        <mxCell id="fF-WyDOVF_BssLDyHzEs-83" value="Gửi mã xác nhận" style="whiteSpace=wrap;html=1;fillColor=#ffffc0;strokeColor=#ff0000;fontColor=#000000;rounded=1;arcSize=40;" vertex="1" parent="fF-WyDOVF_BssLDyHzEs-49">
          <mxGeometry x="130.01" y="391" width="135" height="40" as="geometry" />
        </mxCell>
        <mxCell id="fF-WyDOVF_BssLDyHzEs-108" value="" style="edgeStyle=orthogonalEdgeStyle;rounded=0;orthogonalLoop=1;jettySize=auto;html=1;" edge="1" parent="fF-WyDOVF_BssLDyHzEs-49" source="fF-WyDOVF_BssLDyHzEs-90" target="fF-WyDOVF_BssLDyHzEs-94">
          <mxGeometry relative="1" as="geometry" />
        </mxCell>
        <mxCell id="fF-WyDOVF_BssLDyHzEs-90" value="Lưu mật khẩu và hiển thị thông báo thành công" style="whiteSpace=wrap;html=1;fillColor=#ffffc0;strokeColor=#ff0000;fontColor=#000000;rounded=1;arcSize=40;" vertex="1" parent="fF-WyDOVF_BssLDyHzEs-49">
          <mxGeometry x="140" y="561" width="135" height="40" as="geometry" />
        </mxCell>
        <mxCell id="fF-WyDOVF_BssLDyHzEs-94" value="" style="ellipse;html=1;shape=endState;fillColor=#000000;strokeColor=#ff0000;" vertex="1" parent="fF-WyDOVF_BssLDyHzEs-49">
          <mxGeometry x="192.5" y="631" width="30" height="30" as="geometry" />
        </mxCell>
        <mxCell id="fF-WyDOVF_BssLDyHzEs-97" value="Không hợp lệ" style="text;html=1;align=center;verticalAlign=middle;resizable=0;points=[];autosize=1;strokeColor=none;fillColor=none;" vertex="1" parent="fF-WyDOVF_BssLDyHzEs-49">
          <mxGeometry x="64.38000000000001" y="294" width="100" height="30" as="geometry" />
        </mxCell>
        <mxCell id="fF-WyDOVF_BssLDyHzEs-99" value="Hiển thị màn hình đổi mật khẩu" style="rounded=1;whiteSpace=wrap;html=1;arcSize=40;fontColor=#000000;fillColor=#ffffc0;strokeColor=#ff0000;" vertex="1" parent="fF-WyDOVF_BssLDyHzEs-49">
          <mxGeometry x="140" y="111" width="120" height="40" as="geometry" />
        </mxCell>
        <mxCell id="fF-WyDOVF_BssLDyHzEs-112" value="Hợp lệ" style="text;html=1;align=center;verticalAlign=middle;resizable=0;points=[];autosize=1;strokeColor=none;fillColor=none;" vertex="1" parent="fF-WyDOVF_BssLDyHzEs-49">
          <mxGeometry x="140" y="351" width="60" height="30" as="geometry" />
        </mxCell>
      </root>
    </mxGraphModel>
  </diagram>
</mxfile>
